<?xml version="1.0" encoding="iso-8859-1"?>
<!-- Generator: Adobe Illustrator 19.0.0, SVG Export Plug-In . SVG Version: 6.00 Build 0)  -->
<svg version="1.1" id="Capa_1" xmlns="http://www.w3.org/2000/svg" xmlns:xlink="http://www.w3.org/1999/xlink" x="0px" y="0px"
	 viewBox="0 0 268.343 268.343" style="enable-background:new 0 0 268.343 268.343;" xml:space="preserve">
<g>
	<g>
		<g>
			<path style="fill:#838A94;" d="M47.584,3.573c-31.96,12.382-28.78,72.109,8.844,66.586l48.116-30.62
				C105.834,7.502,75.875-7.388,47.584,3.573z"/>
			<path style="fill:#9AA0A8;" d="M51.509,23.737c-15.04,12.136-9.073,32.411,9.293,33.299L85.59,40.997
				C83.736,25.251,69.354,9.339,51.509,23.737z"/>
		</g>
		<g>
			<path style="fill:#838A94;" d="M220.759,3.573c31.959,12.382,28.779,72.109-8.844,66.586l-48.116-30.62
				C162.509,7.502,192.468-7.388,220.759,3.573z"/>
			<path style="fill:#9AA0A8;" d="M216.834,23.737c15.039,12.136,9.073,32.411-9.294,33.299l-24.787-16.039
				C184.607,25.251,198.99,9.339,216.834,23.737z"/>
		</g>
	</g>
	<g>
		<g>
			<path style="fill:#535759;" d="M132.832,218.613l-38.096-13.518c-4.722,18.177-7.358,52.804,14.474,61.744
				C134.26,277.097,132.832,231.978,132.832,218.613z"/>
			<path style="fill:#535759;" d="M137.173,218.613l38.096-13.518c4.722,18.177,7.358,52.804-14.473,61.744
				C135.745,277.097,137.173,231.978,137.173,218.613z"/>
		</g>
		<g>
			<path style="fill:#64696D;" d="M87.086,142.261c-10.785,5.069-16.554,24.756-18.142,35.164
				c-2.857,18.725,11.003,41.265,30.478,34.635l4.915-60.217C105.043,142.186,95.668,138.227,87.086,142.261z"/>
			<path style="fill:#64696D;" d="M182.919,142.261c10.785,5.069,16.554,24.756,18.142,35.164
				c2.857,18.725-11.003,41.265-30.479,34.635l-4.915-60.217C164.961,142.186,174.337,138.227,182.919,142.261z"/>
		</g>
		<path style="fill:#838A94;" d="M104.529,142.949c23.954-23.266,63.415-10.908,73.394,18.364
			c7.385,21.663,7.983,50.636-10.54,66.818c-19.246,16.813-52.813,12.247-68.543-6.362
			C80.908,200.554,84.592,162.313,104.529,142.949z"/>
		<path style="fill:#777F87;" d="M97.009,150.702c0,0,40.149,46.61,76.805,0H97.009z"/>
		<g>
			<path style="fill:#A6ACB2;" d="M215.083,61.867c-16.363-23.887-49.624-34.229-80.081-33.475
				c-30.456-0.754-63.718,9.588-80.08,33.475c-25.265,36.884,4.773,76.683,42.087,88.835c12.013,3.912,25.063,6.035,37.993,6.162
				c12.93-0.127,25.98-2.25,37.993-6.162C210.309,138.55,240.346,98.751,215.083,61.867z"/>
		</g>
		<g>
			<path style="fill:#F4C8C1;" d="M75.325,136.316c-6.616-3.223-10.703-10.199-7.268-21.137
				c5.813-18.514,35.644-20.244,38.314,1.539C108.654,135.332,87.621,142.308,75.325,136.316z"/>
			<path style="fill:#F4C8C1;" d="M194.68,136.316c6.616-3.223,10.702-10.199,7.268-21.137
				c-5.813-18.514-35.643-20.244-38.314,1.539C161.352,135.332,182.385,142.308,194.68,136.316z"/>
		</g>
		<g>
			<path style="fill:#64696D;" d="M104.597,75.169c19.521,6.52,33.46,35.767-0.127,45.104c-20.471,5.69-42.173-14.549-29.184-34.836
				C82.572,74.058,95.43,72.107,104.597,75.169z"/>
			<path style="fill:#64696D;" d="M167.567,75.169c-19.521,6.52-33.46,35.767,0.128,45.104c20.471,5.69,39.715-14.549,26.726-34.836
				C187.135,74.058,176.735,72.107,167.567,75.169z"/>
			<g>
				<g>
					<circle style="fill:#FFFFFF;" cx="98.221" cy="98.451" r="16.894"/>
					<circle cx="98.221" cy="98.451" r="11.069"/>
				</g>
				<circle style="fill:#FFFFFF;" cx="106.054" cy="91.48" r="5.53"/>
			</g>
			<g>
				<g>
					<circle style="fill:#FFFFFF;" cx="171.105" cy="98.451" r="16.894"/>
					<circle cx="171.105" cy="98.451" r="11.068"/>
				</g>
				<circle style="fill:#FFFFFF;" cx="178.938" cy="91.48" r="5.53"/>
			</g>
		</g>
		<path d="M151.983,118.246c-3.808-10.558-30.06-10.636-33.888,0.007C112.687,133.295,156.926,131.978,151.983,118.246z
			 M142.173,103.643c-0.051-0.009-0.026-0.019,0-0.027C142.197,103.624,142.223,103.634,142.173,103.643z"/>
		<path d="M152.423,131.242c-5.71,18.105-28.697,14.971-35.313-0.684c-1.435-3.397-6.374-0.471-4.952,2.895
			c4.049,9.583,13.251,15.801,23.616,16.178c10.703,0.39,19.08-7.037,22.18-16.862C159.07,129.231,153.532,127.729,152.423,131.242z
			"/>
		<g>
			<path style="fill:#6A6E72;" d="M88.515,57.197c6.169-0.184,12.645,4.588,5.447,11.18c-4.605,4.215-13.705,2.621-13.231-4.482
				C81.038,59.299,84.718,57.31,88.515,57.197z"/>
			<path style="fill:#6A6E72;" d="M181.491,57.197c-6.169-0.184-12.646,4.588-5.447,11.18c4.604,4.215,13.705,2.621,13.231-4.482
				C188.968,59.299,185.287,57.31,181.491,57.197z"/>
		</g>
	</g>
	<path style="fill:#A6ACB2;" d="M134.551,24.842c-1.504-6.941,0.83-19.473-9.257-19.473c-11.546,0-5.383,19.141-2.766,26.88
		l23.329,7.29C160.178,26.909,147.72-8.571,134.551,24.842z"/>
	<path style="opacity:0.5;fill:#CBCED1;" d="M143.802,175.703c36.836,7.467,29.958,60.207-13.542,53.05
		C90.275,222.176,99.12,166.649,143.802,175.703z"/>
</g>
<g>
</g>
<g>
</g>
<g>
</g>
<g>
</g>
<g>
</g>
<g>
</g>
<g>
</g>
<g>
</g>
<g>
</g>
<g>
</g>
<g>
</g>
<g>
</g>
<g>
</g>
<g>
</g>
<g>
</g>
</svg>
