<svg id="koala" data-name="koala1" xmlns="http://www.w3.org/2000/svg" viewBox="0 0 320 320">
<rect fill="#6B7280" x="-20" y="-15" width="360" height="350"/>
<path fill="#b4b6ac" d="M42.12,324.43C52.62,285.43,83,231,83,231H247.3l34.4,104.52s-10.06-9.07-90.59-1.19C102.49,343,42.12,324.43,42.12,324.43Z"/>
<path fill="#b4b6ac" d="M97.63,241.19s-39.67-21.93-32-54.67c8.17-34.83,14-74,44.67-89.33,11.2-6,104-32,131.33.67s43.84,74.51,35.28,95.59c-7.33,18.07-29.08,40-29.08,40L224.57,252a86.81,86.81,0,0,1-99.64,6Z"/>
<path fill="#d1dbd3" d="M175.12,290.49c-22.77-1.6-45.91-5.63-66-16.29a71.58,71.58,0,0,1,3.09,10.25l3.39-.05c-3.45,9-4.48,19.07-2,28.39s9.09,13.3,17.73,17.57c4.8,2.37,9.77,2.27,15,3.17,10.15,1.73,21.37-.78,31.64,0s20,.39,29.68-3.17c10.49-3.87,19.05-2.3,23.24-12.68a40.86,40.86,0,0,0-.46-31.21,8.63,8.63,0,0,0,4.62,3.95,84.08,84.08,0,0,1-.42-16.71c-8,6.41-16.64,11.84-26.43,14.68C197.58,291.49,186.23,291.27,175.12,290.49Z"/>
<path fill="#9a9991" d="M80.32,238.49l0-.63.33-1a5.45,5.45,0,0,1-1.32-.72c-1.26,2.74-2.24,5.07-2.38,5.62l-1.18,1.58c-2.06,7.52,6.92,6.33,11.26,12.81s10.67,11.38,17.36,15.39c1.56.94,3.15,1.82,4.76,2.67A74.85,74.85,0,0,0,80.32,238.49Z"/>
<path fill="#9a9991" d="M254.36,250.85c-2.72-7.45-4.79-13.38-5.73-16.1a4.7,4.7,0,0,1-1.49,1.2,29.38,29.38,0,0,0-3.46,2.15,32.57,32.57,0,0,0,1,3.86c-.22.2-.44.4-.64.61a19.34,19.34,0,0,0-3.85,6.73,84.83,84.83,0,0,0-5.46,24.41c5.6-4.48,10.9-9.43,16.09-14.32,1.11-1.05,2.32-2.35,2.12-3.86C252.78,254.41,254.75,251.9,254.36,250.85Z"/>
<path fill="#b8bfb0" d="M244,242.57c.2-.21.42-.41.64-.61a32.4,32.4,0,0,1-1.49-8.05l-1.16.24c-2.39,1-4.82,1.89-7.22,2.84-2.83,1.37-5.66,2.77-8.57,3.94-.42.23-.84.48-1.25.73l-.36.22h0c-.37.21-.74.41-1.13.59a4.74,4.74,0,0,1-.82.29c-17.48,15.6-39.74,27.18-62.89,25.17A85.08,85.08,0,0,1,146,265.43a147.84,147.84,0,0,1-33.26-13C102,246.69,92,239.61,82.07,232.56l-1.77,5.3,0,.63a74.85,74.85,0,0,1,28.81,35.71c20.08,10.66,43.22,14.69,66,16.29,11.11.78,22.46,1,33.16-2.1,9.79-2.84,18.42-8.27,26.43-14.68a84.83,84.83,0,0,1,5.46-24.41A19.34,19.34,0,0,1,244,242.57Z"/>
<path fill="#9a9991" d="M260.3,218.57c.2-.35-.4-.63-.68-.32-6.41,7-9.61,12.47-16.44,14.9-1.33.47-2.61-.74-1.81-1.71A49.69,49.69,0,0,0,251,212.62c.13-.54-.65-.9-1.17-.54-15.68,10.89-36.24,16.74-56.12,22.11-11.85,3.2-24.26,6.41-36.62,4.89-10.29-1.25-19.55-5.69-28.46-9.84q-9.34-4.35-18.49-9C98.5,214.47,84.82,208.4,77.44,199a40.33,40.33,0,0,0,2.9,7.21,66.52,66.52,0,0,0,3.74,6.59c3.7,3,6.64,6.15,7.37,10.72.45,2.81-4.54,3.28-6.15,1.33a99.26,99.26,0,0,1-6.85-9.27c-2-1.45-4.14-2.82-5.87-4.26-.08,1.26-.16,2.53-.15,3.79a24.51,24.51,0,0,0,.88,6.05L84,233.06a84.65,84.65,0,0,0,10.6,10.47c6.81,5.34,15.42,9,24.11,12.1,12,4.32,30.44,9.71,43.56,10.17,34.14,1.2,47-11.22,70.83-22,6.88-3.12,12.9-5.37,18.84-12.4A71.56,71.56,0,0,0,260.3,218.57Z"/>
<path fill="#ffffff" d="M174.22,152.25a39.07,39.07,0,0,0-24,22.1c-6.39,15-16.16,40.24-12.22,46,5.7,8.24,7.41,14,32.66,18.51l-5.38-6.56s18.29,9.79,27.75,9.09a23.87,23.87,0,0,0-11.88-7.82L194.88,238s27.84-14.38,17.72-38.2a117,117,0,0,1-7.41-23.18C200.07,150.53,186.09,148.51,174.22,152.25Z"/>
<path fill="#b4b6ac" d="M238.34,95.77S237,77.19,257.88,60.19s35.53,2,46.73,19,9.69,47.5,6.19,53-1-14.5-4-22.5c-2.19,25.5-4.5,30-10.5,38,.5-8.17-.5-12.5-.5-12.5s.2,16-21.4,19.5Z"/>
<path fill="#d1dbd3" d="M247,104.87s9.26-37.68,28.26-32.18,23,40.83,7.5,59.5-15.44,5.33-15.44,5.33Z"/>
<path fill="#b4b6ac" d="M96.43,107.19s-14.4-23-31.78-28C48.51,74.51,28.84,74,13.57,104.12s3.73-3.43,9.23-5.93-23.09,33-15,52S26.8,178.11,26.8,178.11l-6-16.84S41.88,185.41,68,176Z"/><path fill="#d1dbd3" d="M68.91,161.27s-44.6,1.33-45.8-29.08c-1.51-38,30.26-53.06,62.53-14.66Z"/>
<path fill="#42474a" d="M176.3,206.3s-31.5.39-27.5-21.11,6.46-37.2,27.5-39.5c23.26-2.54,28,18,29.5,37.5S194.8,204.91,176.3,206.3Z"/>
<path fill="#18181d" d="M155.67,188.61a12.15,12.15,0,0,1,13.53,7c.43,1,.65,2.4-.14,3.22s-2.48.55-3.38-.32a14.08,14.08,0,0,1-2-3.21,9.94,9.94,0,0,0-7.33-4.75"/><path fill="#18181d" d="M202.92,188.6a12.13,12.13,0,0,0-13.52,7c-.43,1.06-.66,2.41.13,3.23s2.49.55,3.39-.33a14.2,14.2,0,0,0,2-3.2,9.94,9.94,0,0,1,7.33-4.76"/>
<path fill="#42474a" d="M184.75,212.89c-9.55,1.44-19.32.42-28.81-1.39-1.52-.29-3-.6-4.51-1a32.92,32.92,0,0,1-3.62-1.25,6.11,6.11,0,0,1-1.87-1.52c-.56-.7-1-1.51-1.51-2.23a3.37,3.37,0,0,0-2.19-1.43,1.7,1.7,0,0,0-1.92,1.43,13.82,13.82,0,0,0,.31,1.53,2.37,2.37,0,0,0,.1,1c.16.31.56.36.84.56,2,1.31,6,1.27,7.12,1.23a36.36,36.36,0,0,0,5.09,1.75c9.62,2.55,19.58,4.35,29.51,3.59s19.88-4.27,27.05-11.18C202.25,208,193.73,211.53,184.75,212.89Z"/>
<path fill="#d1dbd3" d="M209.14,105.27s30.23-7,37.56,21Z"/>
<path fill="#d1dbd3" d="M94.37,137.69s8.23-28.84,31.11-23.39Z"/>
<circle fill="#18181d" cx="223.5" cy="150.97" r="16.74"/>
<circle fill="#18181d" cx="124.18" cy="159.14" r="16.29"/>
<circle fill="#ffffff" cx="118.77" cy="150.73" r="4"/>
<circle fill="#ffffff" cx="216.49" cy="143.53" r="4"/>
<path fill="#b4b6ac" d="M206.16,172.25s19.63-17.58,54.19-19.43l-6,32.34-41.61,9.25Z"/>
<path fill="#b4b6ac" d="M86.06,170.84s31.08-11.15,55.76,4.27l-10.4,26.44Z"/>
</svg>